<svg width="33" height="22" viewBox="0 0 33 22" fill="none" xmlns="http://www.w3.org/2000/svg">
<path d="M1.3836 13.9688C1.64672 13.9688 1.89905 14.0511 2.0851 14.1976C2.27115 14.3441 2.37567 14.5428 2.37567 14.75V18.6562C2.37567 19.0707 2.58471 19.4681 2.9568 19.7611C3.3289 20.0541 3.83357 20.2188 4.35979 20.2188H28.1693C28.6955 20.2188 29.2002 20.0541 29.5723 19.7611C29.9444 19.4681 30.1534 19.0707 30.1534 18.6562V14.75C30.1534 14.5428 30.258 14.3441 30.444 14.1976C30.6301 14.0511 30.8824 13.9688 31.1455 13.9688C31.4086 13.9688 31.661 14.0511 31.847 14.1976C32.0331 14.3441 32.1376 14.5428 32.1376 14.75V18.6562C32.1376 19.4851 31.7195 20.2799 30.9753 20.866C30.2311 21.452 29.2218 21.7812 28.1693 21.7812H4.35979C3.30735 21.7812 2.29801 21.452 1.55382 20.866C0.809623 20.2799 0.391541 19.4851 0.391541 18.6562V14.75C0.391541 14.5428 0.496061 14.3441 0.682109 14.1976C0.868157 14.0511 1.12049 13.9688 1.3836 13.9688Z" fill="white"/>
<path d="M15.5622 17.0219C15.6543 17.0946 15.7638 17.1524 15.8843 17.1917C16.0048 17.2311 16.1341 17.2514 16.2645 17.2514C16.395 17.2514 16.5242 17.2311 16.6448 17.1917C16.7653 17.1524 16.8748 17.0946 16.9669 17.0219L22.9193 12.3344C23.1056 12.1877 23.2102 11.9887 23.2102 11.7812C23.2102 11.5738 23.1056 11.3748 22.9193 11.2281C22.733 11.0814 22.4804 10.999 22.2169 10.999C21.9535 10.999 21.7008 11.0814 21.5145 11.2281L17.2566 14.5828V0.84375C17.2566 0.63655 17.1521 0.437836 16.966 0.291323C16.78 0.14481 16.5277 0.0625 16.2645 0.0625C16.0014 0.0625 15.7491 0.14481 15.5631 0.291323C15.377 0.437836 15.2725 0.63655 15.2725 0.84375V14.5828L11.0145 11.2281C10.8283 11.0814 10.5756 10.999 10.3122 10.999C10.0487 10.999 9.79607 11.0814 9.60978 11.2281C9.4235 11.3748 9.31885 11.5738 9.31885 11.7812C9.31885 11.9887 9.4235 12.1877 9.60978 12.3344L15.5622 17.0219Z" fill="white"/>
</svg>
