<svg width="93" height="108" viewBox="0 0 93 108" fill="none" xmlns="http://www.w3.org/2000/svg">
<path d="M69.7534 35.76C75.9188 35.76 81.8316 33.8763 86.1912 30.5231C90.5508 27.17 93 22.6221 93 17.88C93 13.1379 90.5508 8.59009 86.1912 5.23694C81.8316 1.88378 75.9188 0 69.7534 0L23.2602 0C17.0984 0 11.1891 1.88268 6.83202 5.23387C2.475 8.58506 0.0272431 13.1302 0.0272431 17.8695C0.0272431 22.6088 2.475 27.154 6.83202 30.5052C11.1891 33.8564 17.0984 35.7391 23.2602 35.7391C17.0948 35.7391 11.182 37.6229 6.82239 40.976C2.46281 44.3292 0.0136249 48.877 0.0136249 53.6191C0.0136249 58.3612 2.46281 62.909 6.82239 66.2622C11.182 69.6154 17.0948 71.4991 23.2602 71.4991C18.6625 71.4971 14.1672 72.5437 10.3428 74.5066C6.51843 76.4696 3.53673 79.2607 1.77477 82.5271C0.0127993 85.7934 -0.450299 89.3883 0.444035 92.8571C1.33837 96.3259 3.54996 99.5128 6.79915 102.015C10.0483 104.517 14.1892 106.222 18.6981 106.914C23.2069 107.606 27.8813 107.254 32.1301 105.902C36.3789 104.551 40.0113 102.261 42.5679 99.3215C45.1245 96.3823 46.4905 92.926 46.4932 89.3896V35.76H69.7534ZM69.7534 35.76C65.1584 35.76 60.6665 36.8081 56.8459 38.7716C53.0252 40.7351 50.0474 43.526 48.2889 46.7912C46.5305 50.0564 46.0704 53.6494 46.9668 57.1158C47.8633 60.5821 50.076 63.7662 53.3252 66.2653C56.5744 68.7644 60.7141 70.4663 65.2209 71.1558C69.7276 71.8453 74.399 71.4914 78.6443 70.1389C82.8895 68.7864 86.518 66.496 89.0709 63.5574C91.6238 60.6187 92.9864 57.1639 92.9864 53.6296C92.9857 48.8905 90.5377 44.3456 86.1808 40.9945C81.8239 37.6435 75.915 35.7606 69.7534 35.76Z" fill="#9E9E9E"/>
</svg>
