<svg width="107" height="108" viewBox="0 0 107 108" fill="none" xmlns="http://www.w3.org/2000/svg">
<path d="M0 0V107.259H107V0H0ZM58.229 83.6526C58.229 94.0912 52.1147 98.8556 43.206 98.8556C35.1571 98.8556 30.4998 94.6897 28.1114 89.638L36.3036 84.6821C37.8799 87.4833 39.3129 89.8535 42.7761 89.8535C46.0721 89.8535 48.1739 88.5606 48.1739 83.5089V49.2482H58.229V83.6526ZM82.0174 98.8556C72.6788 98.8556 66.6362 94.4024 63.6984 88.5606L71.8906 83.8202C74.0402 87.3396 76.8585 89.9493 81.8025 89.9493C85.9583 89.9493 88.6333 87.8663 88.6333 84.9694C88.6333 81.5218 85.9105 80.3007 81.3009 78.2657L78.7931 77.1883C71.5324 74.0998 66.7317 70.1973 66.7317 61.9853C66.7317 54.4197 72.4877 48.6736 81.4442 48.6736C87.8451 48.6736 92.4308 50.9002 95.7268 56.742L87.8929 61.7698C86.1732 58.6813 84.3103 57.4603 81.4203 57.4603C78.4826 57.4603 76.6196 59.3277 76.6196 61.7698C76.6196 64.7865 78.4826 66.0075 82.8056 67.8989L85.3134 68.9763C93.8638 72.6394 98.6645 76.3982 98.6645 84.8257C98.6645 93.8757 91.5471 98.8556 82.0174 98.8556Z" fill="#9E9E9E"/>
</svg>
