<svg width="145" height="62" viewBox="0 0 145 62" fill="none" xmlns="http://www.w3.org/2000/svg">
<rect width="76" height="62" rx="10" fill="#433539"/>
<path d="M1.504 37V25.8H3.216L8.112 33.976H7.216L12.032 25.8H13.744L13.76 37H11.792L11.776 28.888H12.192L8.096 35.72H7.168L3.008 28.888H3.488V37H1.504ZM16.7853 37V25.8H22.0333C23.3773 25.8 24.4013 26.0667 25.1053 26.6C25.8093 27.1227 26.1613 27.8267 26.1613 28.712C26.1613 29.3093 26.0226 29.8213 25.7453 30.248C25.4679 30.664 25.0946 30.9893 24.6253 31.224C24.1666 31.448 23.6653 31.56 23.1213 31.56L23.4093 30.984C24.0386 30.984 24.6039 31.1013 25.1053 31.336C25.6066 31.56 26.0013 31.8907 26.2893 32.328C26.5879 32.7653 26.7373 33.3093 26.7373 33.96C26.7373 34.92 26.3693 35.6667 25.6333 36.2C24.8973 36.7333 23.8039 37 22.3533 37H16.7853ZM18.8653 35.368H22.2253C23.0039 35.368 23.6013 35.24 24.0173 34.984C24.4333 34.728 24.6413 34.3173 24.6413 33.752C24.6413 33.1973 24.4333 32.792 24.0173 32.536C23.6013 32.2693 23.0039 32.136 22.2253 32.136H18.7053V30.52H21.8093C22.5346 30.52 23.0893 30.392 23.4733 30.136C23.8679 29.88 24.0653 29.496 24.0653 28.984C24.0653 28.4613 23.8679 28.072 23.4733 27.816C23.0893 27.56 22.5346 27.432 21.8093 27.432H18.8653V35.368ZM28.9571 37V25.8H31.0371V37H28.9571ZM36.3385 37V27.56H32.6265V25.8H42.1305V27.56H38.4185V37H36.3385ZM45.2793 37.16C44.5646 37.16 43.9033 37.0213 43.2953 36.744C42.6979 36.4667 42.2073 36.0667 41.8232 35.544L43.0073 34.12C43.3166 34.5467 43.6526 34.8667 44.0153 35.08C44.3886 35.2933 44.7939 35.4 45.2313 35.4C46.3939 35.4 46.9753 34.712 46.9753 33.336V27.544H42.9913V25.8H49.0553V33.224C49.0553 34.5467 48.7299 35.5333 48.0793 36.184C47.4393 36.8347 46.5059 37.16 45.2793 37.16ZM51.9728 37V25.8H54.0528V37H51.9728ZM59.3541 37V27.56H55.6421V25.8H65.1461V27.56H61.4341V37H59.3541ZM64.5606 37L69.6006 25.8H71.6486L76.7046 37H74.5286L70.1926 26.904H71.0246L66.7046 37H64.5606ZM66.8806 34.408L67.4406 32.776H73.4886L74.0486 34.408H66.8806ZM80.913 34.6L80.705 30.456L84.929 25.8H89.041L84.305 31.016L82.209 33.16L80.913 34.6ZM77.537 37V25.8H81.249V37H77.537ZM84.897 37L81.601 32.648L84.049 30.056L89.265 37H84.897ZM94.9751 37.256C93.2578 37.256 91.9191 36.792 90.9591 35.864C89.9991 34.936 89.5191 33.6347 89.5191 31.96V25.8H93.2951V31.848C93.2951 32.7013 93.4498 33.3093 93.7591 33.672C94.0685 34.024 94.4845 34.2 95.0071 34.2C95.5405 34.2 95.9565 34.024 96.2551 33.672C96.5645 33.3093 96.7191 32.7013 96.7191 31.848V25.8H100.431V31.96C100.431 33.6347 99.9511 34.936 98.9911 35.864C98.0311 36.792 96.6925 37.256 94.9751 37.256ZM102.162 37V25.8H107.554C108.599 25.8 109.501 25.9707 110.258 26.312C111.026 26.6533 111.618 27.144 112.034 27.784C112.45 28.4133 112.658 29.16 112.658 30.024C112.658 30.888 112.45 31.6347 112.034 32.264C111.618 32.8827 111.026 33.3573 110.258 33.688C109.501 34.0187 108.599 34.184 107.554 34.184H104.258L105.938 32.632V37H102.162ZM108.866 37L106.114 32.92H110.114L112.898 37H108.866ZM105.938 33.048L104.258 31.336H107.314C107.837 31.336 108.221 31.2187 108.466 30.984C108.722 30.7493 108.85 30.4293 108.85 30.024C108.85 29.6187 108.722 29.2987 108.466 29.064C108.221 28.8293 107.837 28.712 107.314 28.712H104.258L105.938 27V33.048ZM114.084 37V25.8H117.86V37H114.084ZM122.51 37.256C121.635 37.256 120.846 37.1173 120.142 36.84C119.438 36.552 118.851 36.136 118.382 35.592L120.414 33.192C120.712 33.5547 121.006 33.832 121.294 34.024C121.582 34.2053 121.88 34.296 122.19 34.296C123 34.296 123.406 33.832 123.406 32.904V28.648H119.598V25.8H127.134V32.68C127.134 34.216 126.739 35.3627 125.95 36.12C125.16 36.8773 124.014 37.256 122.51 37.256ZM127.415 37L132.311 25.8H136.023L140.919 37H137.015L133.399 27.592H134.871L131.255 37H127.415ZM130.327 35.048L131.287 32.328H136.439L137.399 35.048H130.327Z" fill="white"/>
</svg>
