<svg width="119" height="108" viewBox="0 0 119 108" fill="none" xmlns="http://www.w3.org/2000/svg">
<path d="M116.818 40.3408C114.773 32.9431 110.895 27.3648 102.634 27.3648H91.9832V38.7128C91.9832 47.5231 83.696 54.9448 74.24 54.9448H45.8722C38.1162 54.9448 31.6882 60.9301 31.6882 67.9448V92.3167C31.6882 99.2595 38.3818 103.33 45.8722 105.317C54.85 107.687 63.4825 108.118 74.24 105.317C81.3851 103.449 88.4239 99.6905 88.4239 92.3167V82.5727H60.0827V79.3167H102.634C110.895 79.3167 113.95 74.1215 116.818 66.3407C119.793 58.3205 119.66 50.6115 116.818 40.3408ZM76.0197 89.0607C78.968 89.0607 81.3585 91.2393 81.3585 93.9207C81.3585 96.626 78.968 98.8047 76.0197 98.8047C73.0979 98.8047 70.6808 96.6021 70.6808 93.9207C70.7073 91.2154 73.0979 89.0607 76.0197 89.0607ZM44.5706 51.7367H72.9385C80.8273 51.7367 87.1224 45.8712 87.1224 38.7368V14.3409C87.1224 7.39807 80.6414 2.20288 72.9385 1.02977C63.4294 -0.382746 53.0969 -0.310923 44.5706 1.05371C32.5648 2.96899 30.3867 6.96713 30.3867 14.3649V24.1089H58.7811V27.3648H19.7355C11.4748 27.3648 4.25006 31.8418 1.99232 40.3408C-0.610719 50.0848 -0.716965 56.1658 1.99232 66.3407C4.01101 73.9061 8.81867 79.3167 17.0793 79.3167H26.8275V67.6335C26.8275 59.1824 34.9288 51.7367 44.5706 51.7367ZM42.791 17.5969C39.8427 17.5969 37.4521 15.4183 37.4521 12.7369C37.4787 10.0316 39.8427 7.85295 42.791 7.85295C45.7128 7.85295 48.1299 10.0555 48.1299 12.7369C48.1299 15.4183 45.7394 17.5969 42.791 17.5969Z" fill="#9E9E9E"/>
</svg>
